<svg xmlns="http://www.w3.org/2000/svg" xml:space="preserve" width="1.76666in" height="1.76666in"
    version="1.1"
    style="shape-rendering:geometricPrecision; text-rendering:geometricPrecision; image-rendering:optimizeQuality; fill-rule:evenodd; clip-rule:evenodd"
    viewBox="0 0 1767 1767"
    xmlns:xlink="http://www.w3.org/1999/xlink">
 <defs>
  <style type="text/css">
   <![CDATA[
    .fil0 {fill:black}
   ]]>
  </style>
 </defs>
 <g id="Layer_x0020_1">
  <metadata id="CorelCorpID_0Corel-Layer"/>
  <path class="fil0" d="M669 1660c-63,-45 -114,-110 -149,-191 -78,-182 -81,-487 167,-745 51,-53 108,-328 127,-516 -47,201 -165,493 -300,558 -312,151 -466,343 -424,527 42,184 269,323 579,367zm202 -1486c-15,179 -71,509 -145,587 -353,367 -196,913 157,913 353,0 510,-546 158,-913 -84,-88 -130,-475 -138,-551l-32 -36zm76 6l77 86c3,4 5,8 6,12 1,4 78,359 246,440 336,163 501,376 452,587 -57,249 -404,423 -845,423 -440,0 -788,-174 -845,-423 -48,-211 117,-424 453,-587 142,-69 287,-491 293,-653 1,-24 30,-35 46,-17l117 132zm18 100c20,152 62,389 114,444 248,258 246,563 168,745 -35,81 -86,146 -149,191 309,-44 536,-183 579,-367 42,-184 -113,-376 -424,-527 -179,-86 -261,-416 -274,-470l-14 -16z"/>
 </g>
</svg>